<svg xmlns="http://www.w3.org/2000/svg"><symbol id="linkedin-logo" viewBox="0 0 430.12 430.12"><path d="M430.117 261.543V420.56h-92.188V272.193c0-37.271-13.334-62.707-46.703-62.707-25.473 0-40.632 17.142-47.301 33.724-2.432 5.928-3.058 14.179-3.058 22.477V420.56h-92.219s1.242-251.285 0-277.32h92.21v39.309c-.187.294-.43.611-.606.896h.606v-.896c12.251-18.869 34.13-45.824 83.102-45.824 60.673-.001 106.157 39.636 106.157 124.818zM52.183 9.558C20.635 9.558 0 30.251 0 57.463c0 26.619 20.038 47.94 50.959 47.94h.616c32.159 0 52.159-21.317 52.159-47.94-.606-27.212-20-47.905-51.551-47.905zM5.477 420.56h92.184V143.24H5.477v277.32z"/></symbol><symbol id="dribbble-logo" viewBox="0 0 438.53 438.53"><path d="M409.133 109.203c-19.608-33.592-46.205-60.189-79.798-79.796C295.736 9.801 259.058 0 219.273 0c-39.781 0-76.47 9.801-110.063 29.407-33.595 19.604-60.192 46.201-79.8 79.796C9.801 142.8 0 179.489 0 219.267c0 39.78 9.804 76.463 29.407 110.062 19.607 33.592 46.204 60.189 79.799 79.798 33.597 19.605 70.283 29.407 110.063 29.407s76.47-9.802 110.065-29.407c33.593-19.602 60.189-46.206 79.795-79.798 19.603-33.596 29.403-70.284 29.403-110.062.001-39.782-9.8-76.472-29.399-110.064zM219.27 31.977c47.201 0 88.41 15.607 123.621 46.82l-3.569 4.993c-1.427 2.002-4.996 5.852-10.704 11.565-5.709 5.708-11.943 11.136-18.699 16.274-6.762 5.14-15.94 10.992-27.555 17.559-11.611 6.567-23.982 12.328-37.117 17.276-21.887-40.355-45.296-76.709-70.231-109.064 15.039-3.616 29.789-5.423 44.254-5.423zM72.524 103.06c18.271-23.026 40.537-40.73 66.806-53.1 23.601 31.405 46.82 67.381 69.662 107.921-57.862 15.227-115.532 22.841-173.014 22.838 6.094-28.739 18.275-54.628 36.546-77.659zM44.54 286.794c-8.376-21.412-12.563-43.923-12.563-67.527 0-2.666.098-4.665.286-5.996 68.905 0 132.955-8.848 192.149-26.553 6.092 11.8 11.136 22.364 15.133 31.693-.771.38-1.999.806-3.713 1.283-1.719.476-2.953.806-3.721.999l-10.561 3.711c-7.236 2.666-16.708 7.235-28.409 13.703-11.704 6.478-24.123 14.182-37.257 23.13-13.134 8.949-26.696 20.797-40.684 35.553-13.99 14.75-25.743 30.591-35.26 47.53-15.227-16.939-27.026-36.12-35.4-57.526zM219.27 406.56c-44.54 0-84.32-14.277-119.343-42.825l4.283 3.142c6.661-14.66 16.462-28.746 29.408-42.257 12.944-13.511 25.41-24.413 37.401-32.695 11.991-8.274 25.028-16.077 39.115-23.414 14.084-7.323 23.691-11.991 28.835-13.983 5.14-1.998 9.233-3.572 12.278-4.716l.568-.287h.575c18.647 48.916 31.977 96.313 39.968 142.184-23.602 9.902-47.961 14.848-73.088 14.851zm157.606-86.081c-14.086 21.796-31.696 39.834-52.817 54.104-7.81-43.776-19.985-88.415-36.549-133.902 37.877-5.907 76.8-3.142 116.771 8.274-4.189 25.886-13.326 49.732-27.405 71.524zm26.83-103.781a232.46 232.46 0 0 0-7.139-1.283c-2.854-.473-6.331-1.047-10.424-1.713-4.087-.666-8.662-1.283-13.702-1.855a549.162 549.162 0 0 0-16.136-1.569c-5.708-.478-11.8-.855-18.268-1.143a449.763 449.763 0 0 0-19.705-.428c-6.656 0-13.657.193-20.981.571a246.549 246.549 0 0 0-21.265 1.999c-.575-.953-1.287-2.524-2.143-4.714-.855-2.187-1.479-3.855-1.848-4.997a1895.128 1895.128 0 0 0-12.573-27.121c13.134-5.333 25.652-11.469 37.555-18.418 11.892-6.949 21.402-13.131 28.544-18.555a237.319 237.319 0 0 0 20.27-17.277c6.379-6.09 10.513-10.323 12.423-12.703a286.978 286.978 0 0 0 5.424-6.995l.287-.288c27.788 33.88 41.974 72.897 42.538 117.059l-2.857-.57z"/></symbol><symbol id="envelope" viewBox="0 0 483.3 483.3"><path d="M424.3 57.75H59.1c-32.6 0-59.1 26.5-59.1 59.1v249.6c0 32.6 26.5 59.1 59.1 59.1h365.1c32.6 0 59.1-26.5 59.1-59.1v-249.5c.1-32.6-26.4-59.2-59-59.2zm32.1 308.7c0 17.7-14.4 32.1-32.1 32.1H59.1c-17.7 0-32.1-14.4-32.1-32.1v-249.5c0-17.7 14.4-32.1 32.1-32.1h365.1c17.7 0 32.1 14.4 32.1 32.1v249.5h.1z"/><path d="M304.8 238.55l118.2-106c5.5-5 6-13.5 1-19.1-5-5.5-13.5-6-19.1-1l-163 146.3-31.8-28.4c-.1-.1-.2-.2-.2-.3-.7-.7-1.4-1.3-2.2-1.9L78.3 112.35c-5.6-5-14.1-4.5-19.1 1.1-5 5.6-4.5 14.1 1.1 19.1l119.6 106.9-119.1 111.5c-5.4 5.1-5.7 13.6-.6 19.1 2.7 2.8 6.3 4.3 9.9 4.3 3.3 0 6.6-1.2 9.2-3.6l120.9-113.1 32.8 29.3c2.6 2.3 5.8 3.4 9 3.4s6.5-1.2 9-3.5l33.7-30.2 120.2 114.2c2.6 2.5 6 3.7 9.3 3.7 3.6 0 7.1-1.4 9.8-4.2 5.1-5.4 4.9-14-.5-19.1l-118.7-112.7z"/></symbol><symbol id="instagram-logo" viewBox="0 0 169.06 169.06"><path d="M122.406 0H46.654C20.929 0 0 20.93 0 46.655v75.752c0 25.726 20.929 46.655 46.654 46.655h75.752c25.727 0 46.656-20.93 46.656-46.655V46.655C169.063 20.93 148.133 0 122.406 0zm31.657 122.407c0 17.455-14.201 31.655-31.656 31.655H46.654C29.2 154.063 15 139.862 15 122.407V46.655C15 29.201 29.2 15 46.654 15h75.752c17.455 0 31.656 14.201 31.656 31.655v75.752z"/><path d="M84.531 40.97c-24.021 0-43.563 19.542-43.563 43.563 0 24.02 19.542 43.561 43.563 43.561s43.563-19.541 43.563-43.561c0-24.021-19.542-43.563-43.563-43.563zm0 72.123c-15.749 0-28.563-12.812-28.563-28.561 0-15.75 12.813-28.563 28.563-28.563s28.563 12.813 28.563 28.563c0 15.749-12.814 28.561-28.563 28.561zm45.39-84.842c-2.89 0-5.729 1.17-7.77 3.22a11.053 11.053 0 0 0-3.23 7.78c0 2.891 1.18 5.73 3.23 7.78 2.04 2.04 4.88 3.22 7.77 3.22 2.9 0 5.73-1.18 7.78-3.22 2.05-2.05 3.22-4.89 3.22-7.78 0-2.9-1.17-5.74-3.22-7.78-2.04-2.05-4.88-3.22-7.78-3.22z"/></symbol></svg>