<svg xmlns="http://www.w3.org/2000/svg"><symbol id="muxlow-logo" viewBox="0 0 1974.1 684"><g fill="#231f20"><path d="M286.6 109.3h-13.1c-35.4 0-24.8-82.1-98.6-82.1S85 110.8 85 169.6C85 241.5 112.2 325 197.2 325c38.4 0 59.8-16.5 80.2-47.1l1.9-2.9 23.4 15c-27.7 45.2-69.5 69-122.9 69C71.9 359 0 282.3 0 174.9 0 81.1 59.8 0 158.9 0c28.1 0 46.6 5.8 60.2 12.1s22.4 12.2 30.6 12.2 9.2-3.4 11.2-9.2h25.7z"/><path d="M291 350.3V343c0-32.6 27.2-4.9 27.2-43.2V59.3c0-38.4-27.2-10.7-27.2-43.3V8.7l104-3.4v127.3c20.4-16 43.2-24.7 69.9-24.7 50.6 0 78.3 25.7 78.3 72.8v119.1c0 38.3 27.2 10.6 27.2 43.2v7.3H440.6V343c0-32.6 25.8-4.9 25.8-43.2V192.4c0-24.3-3.4-50.5-33.5-50.5-13.1 0-29.7 8.7-37.9 19.9v138c0 38.3 25.7 10.6 25.7 43.2v7.3zm557.1-50.6V111.2l-71.9 2.4c-11.7 6.8-21.9 14-29.6 21.8 9.4 4.4 24.9 1.6 24.7 29.8v134.5c0 38.4-27.6 10.7-27.6 43.3v7.2h131.6V343c0-32.6-27.2-4.9-27.2-43.3z"/><path d="M1087.3 139.2c0 25.7-11 49.4-36.9 49.4-43.3 0-39.6-36.9-36.2-52.4-51.3-141.3-330.8-47.5-330.8 95.1v68.4c0 38.4 31.1 10.7 31.1 43.3v7.2H578.9V343c0-32.6 27.7-4.9 27.7-43.3V165.2c0-38.4-28.6-10.7-28.6-43.3v-7.3l99.1-3.4v20.9C753.3 36.6 896.6 14 968.2 33.2s119.1 72.3 119.1 106z"/><path d="M998.9 132.5c-14.6 0-40.8 9.4-40.8 26.8 0 45.2 132.6 23.4 132.6 110.3 0 60.8-63.6 87.5-115.6 87.5-34 0-95.7-11.2-95.7-55.4 0-19.4 15.6-32.6 34-32.6s37 12.7 37 32.6c0 3.9-1 6.8-2.5 10.7a27.3 27.3 0 0 0-1.4 6.3c0 10.7 22.3 13.1 29.6 13.1 19.9 0 47.1-8.2 47.1-32.5 0-46.2-133.1-29.7-133.1-111.8 0-51.4 48.2-74.9 93.3-79.1 5.6 5.1 11.1 13.5 15.5 24.1zm374.3 167.3V114.3l-104.5.4h-60.8V45.2l-47.6 2.9c-24.8 1.5-29.2 1.9-29.2 24.8V86c0 51-28.2 21.9-28.2 54.4v7.3h28.2V290c.5 31.4 20.6 60.2 59 60.3h210.3V343c0-32.6-27.2-4.9-27.2-43.2zm-76.8-16.7c0 17-.8 39.2-22.5 39.2-14.4 0-30.9.4-46.2.6-18.9-2.2-19.8-22.1-19.8-37.7v-139h83.7c2.9 3.3 4.8 8.8 4.8 19zm33.5-281.2c-25.2 0-44.2 20.4-44.2 44.7s19 42.8 42.8 42.8c25.7 0 44.7-19.9 44.7-45.2 0-22.8-19.9-42.3-43.3-42.3zm197 109.4v23.8c22.8-19.5 40.8-27.2 70.9-27.2 58.3 0 80.2 31 80.2 77.7v114.2c0 38.3 27.2 10.6 27.2 43.2v7.3h-129.7V343c0-32.6 25.7-4.9 25.7-43.2V181.7c0-19.4-4.3-39.8-32-39.8-12.2 0-31.1 6.3-38.4 17.4v140.5c0 37.4 29.2 9.7 29.2 43.2v7.3h-133.2V343c0-32.6 27.2-4.9 27.2-43.2V165.2c0-38.4-27.2-10.7-27.2-43.3v-7.2zm297.1 19.9c-9.2 0-23.3 3.9-23.3 15.5 0 5.8 2.4 11.2 2.4 17 0 18.5-16.5 30.1-33.5 30.1s-36.4-12.6-36.4-32c0-41.8 59.2-53.9 95.7-53.9 13.1 0 111.2.4 111.2 102.9v66.6c0 7.3-3.9 44.2 12.7 44.2 4.8 0 9.7-3.4 12.6-7.3l2.4 3.4c2.5 3.4 6.3 7.3 6.3 11.7 0 13.1-28.6 27.7-42.2 27.7-30.6 0-45.2-14.6-56.4-37.4-21.8 27.2-42.7 37.4-77.2 37.4-41.8 0-80.7-22.9-80.7-68.5 0-71.4 101.1-83.1 144.8-91.8.5-24.8-5.8-65.6-38.4-65.6zm39.4 89.4c-35 3.8-65.6 25.7-65.6 63.1 0 16.1 7.8 41.8 27.7 41.8 33 0 37.9-44.7 37.9-68.5zm-1429 161.6h119v6.3c0 28.1-28.2 4.2-28.2 37.4v207.7c0 33.1 28.2 9.2 28.2 37.3v6.3H417.9v-6.3c0-28.1 27.2-4.2 27.2-37.3V436.8h-1l-93.8 240.4h-30.6l-92.8-237.5h-.9v193.9c0 33.1 30.6 9.2 30.6 37.3v6.3h-92.3v-6.3c0-28.1 31.5-4.2 31.5-37.3V425.9c0-33.2-27.2-9.3-27.2-37.4v-6.3h119.6l74.3 187.2z"/><path d="M717.6 656.3c-18.5 20.4-43.7 27.7-70.9 27.7-52.5 0-72.9-37.4-72.9-84.5V492.1c0-37.4-25.8-11.6-25.8-41.8v-8.7l102.5-3.4v163.2c0 20.4 3.4 48.6 30.2 48.6 10.2 0 29.6-6.8 34.9-16.5V492.1c0-37.4-27.2-11.6-27.2-41.8v-8.7l104-3.4v188.5c0 37.4 27.2 11.7 27.2 41.8v8.7h-102zm518.2 14.7v6.2H953.3v-11.6c0-21.9 18.4-6.4 18.4-20.4 0-4.9-4.6-14.1-7.4-18l-25.6-36.9-22.5 31.5c-3.7 5.4-11.5 15.6-11.5 22.4 0 14.1 22.1-.5 22.1 25.7v7.3h-92.7v-12.1c0-17 23.9-6.8 43.1-33.5l45.9-63.2-61.4-90.4c-12.9-18.9-28-6.3-28-29.1v-7.3h130.2v7.3c0 23.3-21.6 8.7-21.6 23.3 0 3.4 6.5 12.6 7.8 15.1l26.2 38.8 27.5-38.8c2.7-4.4 8.2-11.2 8.2-17 0-10.2-20.6.4-20.6-21.4v-7.3h85.7v8.7c0 23.4-16 4.4-35.7 30.7l-50.5 67 61.5 87.4c10.5 15.3 20.5 19.3 28.5 20.8a66.2 66.2 0 0 0 12.6.8c18.8-.9 37.5-3.4 37.9-23.1V427.7c0-32.9-27.7-9.2-27.7-37.1v-6.3l104.4-2.9v252.5c0 32.9 27.7 9.2 27.7 37.1zm262.6-110.4c0 73.4-58.3 123.4-129.7 123.4s-127.8-53.4-127.8-125.8c0-74.8 56.9-123.4 129.8-123.4 74.8 0 127.7 50.5 127.7 125.8zm-174.9.5c0 31.1 4.4 99.6 47.7 99.6s44.6-64.6 44.6-95.2-2.9-107.4-47.1-107.4c-42.2 0-45.2 73.4-45.2 103zm300.3 116.1h-41.3l-71.9-194.3c-12.2-33-27.7-2.4-27.7-34v-7.3h137.4v8.3c0 24.7-27.2 6.8-27.2 28.6 0 8.3 2.5 15.6 5.4 23.3l28.6 77.3 48.6-137.5h53l52 140.4 26.2-83.1c1.9-6.3 4.9-14.1 4.9-21.4 0-19.9-28.7-1.9-28.7-28.6v-7.3h89.4v7.3c0 29.6-15.6-2-31.6 44.2l-63.1 184.1h-45.7l-54.4-149.6z"/></g></symbol></svg>