<svg xmlns="http://www.w3.org/2000/svg"><symbol id="instagram-logo" viewBox="0 0 49.65 49.65"><path d="M24.825 29.796a4.978 4.978 0 0 0 4.972-4.97 4.954 4.954 0 0 0-.94-2.897 4.964 4.964 0 0 0-4.029-2.073c-1.659 0-3.126.82-4.031 2.072a4.947 4.947 0 0 0-.94 2.897 4.973 4.973 0 0 0 4.968 4.971zM35.68 18.75v-4.79h-.63l-4.16.01.02 4.79z"/><path d="M24.826 0C11.137 0 0 11.137 0 24.826c0 13.688 11.137 24.826 24.826 24.826 13.688 0 24.826-11.138 24.826-24.826C49.652 11.137 38.516 0 24.826 0zm14.119 21.929v11.56a5.463 5.463 0 0 1-5.457 5.458H16.164a5.462 5.462 0 0 1-5.457-5.458V16.165a5.462 5.462 0 0 1 5.457-5.457h17.323a5.463 5.463 0 0 1 5.458 5.457v5.764z"/><path d="M32.549 24.826c0 4.257-3.464 7.723-7.723 7.723s-7.722-3.466-7.722-7.723a7.67 7.67 0 0 1 .568-2.897h-4.215v11.56a2.706 2.706 0 0 0 2.706 2.704h17.323a2.707 2.707 0 0 0 2.706-2.704v-11.56h-4.217c.367.894.574 1.873.574 2.897z"/></symbol><symbol id="closed-envelope-circle" viewBox="0 0 612 612"><path fill="#010002" d="M306 612c-28.152 0-55.284-3.672-81.396-11.016-26.112-7.347-50.49-17.646-73.134-30.906s-43.248-29.172-61.812-47.736a305.032 305.032 0 0 1-47.736-61.812c-13.26-22.646-23.562-47.022-30.906-73.135C3.672 361.284 0 334.152 0 306s3.672-55.284 11.016-81.396 17.646-50.49 30.906-73.134 29.172-43.248 47.736-61.812 39.168-34.476 61.812-47.736 47.022-23.562 73.134-30.906S277.848 0 306 0c42.024 0 81.702 8.058 119.034 24.174s69.768 37.944 97.308 65.484 49.368 59.976 65.484 97.308S612 263.976 612 306c0 28.152-3.672 55.284-11.016 81.396-7.347 26.109-17.646 50.487-30.906 73.134a305.087 305.087 0 0 1-47.736 61.812 304.924 304.924 0 0 1-61.812 47.736c-22.646 13.26-47.022 23.562-73.136 30.906C361.284 608.328 334.152 612 306 612zm147.492-432.072H163.404c-2.856 0-5.304.918-7.344 2.754s-3.06 4.386-3.06 7.65v32.436c0 1.632.612 2.448 1.836 2.448l152.388 86.904 1.227.612c.813 0 1.428-.204 1.836-.612l147.492-86.904c.813-.408 1.428-.612 1.836-.612.405 0 1.02-.204 1.836-.612 1.632 0 2.448-.816 2.448-2.448v-31.212c0-3.264-1.021-5.814-3.063-7.65s-4.488-2.754-7.344-2.754zm-208.08 130.356c.408-.408.612-1.021.612-1.836 0-1.227-.408-1.836-1.224-1.836l-87.516-50.185c-1.224-.408-2.244-.408-3.06 0-.816 0-1.224.612-1.224 1.836v131.58c0 1.227.612 2.04 1.836 2.448h1.224c.816 0 1.224-.204 1.224-.612l88.128-81.395zm106.488 9.792c-.408-1.227-1.431-1.428-3.063-.612l-33.66 19.584c-4.08 2.448-8.361 2.448-12.852 0l-29.376-16.521c-1.224-.816-2.244-.816-3.06 0l-111.996 104.04c-.408.405-.612 1.224-.612 2.445 0 .408.408 1.021 1.224 1.836 2.448.816 4.08 1.227 4.896 1.227H450.43c.816 0 1.635-.408 2.448-1.227 0-1.632-.204-2.649-.612-3.06L351.9 320.076zm110.16-66.096h-2.445l-83.232 49.572c-.813 0-1.224.612-1.224 1.836-.408.408-.204 1.02.609 1.833L459 397.188c.816.816 1.428 1.227 1.836 1.227h1.224c1.227-1.227 1.839-2.04 1.839-2.448V256.429c-.003-.817-.615-1.633-1.839-2.449z"/></symbol><symbol id="linkedin-logo-button" viewBox="0 0 49.65 49.65"><path d="M29.35 21.298c-2.125 0-3.074 1.168-3.605 1.988v-1.704h-4.002c.052 1.128 0 12.041 0 12.041h4.002v-6.727c0-.359.023-.72.131-.977.29-.72.948-1.465 2.054-1.465 1.448 0 2.027 1.104 2.027 2.724v6.442h4.003v-6.905c-.002-3.696-1.977-5.417-4.61-5.417zm-3.608 2.03h-.025c.008-.014.02-.027.025-.041v.041zM15.52 21.58h4v12.04h-4z"/><path d="M24.826 0C11.137 0 0 11.137 0 24.826c0 13.688 11.137 24.826 24.826 24.826 13.688 0 24.826-11.138 24.826-24.826C49.652 11.137 38.516 0 24.826 0zm13.165 36.055c0 1.056-.876 1.91-1.959 1.91H13.451c-1.08 0-1.957-.854-1.957-1.91V13.211c0-1.055.877-1.91 1.957-1.91h22.581c1.082 0 1.959.856 1.959 1.91v22.844z"/><path d="M17.551 15.777c-1.368 0-2.264.898-2.264 2.08 0 1.155.869 2.08 2.211 2.08h.026c1.396 0 2.265-.925 2.265-2.08-.027-1.181-.868-2.08-2.238-2.08z"/></symbol></svg>