<svg xmlns="http://www.w3.org/2000/svg"><symbol id="muxlow-logo" viewBox="0 0 77.9 28.5"><path d="M10 12.4A9.2 9.2 0 0 1 3.6 15 3.5 3.5 0 0 1 0 11.2a5.9 5.9 0 0 1 6-6.1c1.3 0 3.2.5 3.2 2.1a1.5 1.5 0 0 1-1.5 1.6c-1.5 0-1.8-1-1.8-2.2s-.1-.2-.2-.2-2.1 4.2-2.1 5.1A1.5 1.5 0 0 0 4.9 13a8.3 8.3 0 0 0 4.5-1.9z"/><path d="M8.7 14.6a.5.5 0 0 1-.4-.6c.7-1.6 1.2-3.6 1.7-5.2l1.6-5.1a4.7 4.7 0 0 0 .3-1.3c0-.3-.2-.4-.4-.4a.5.5 0 0 1-.3-.6v-.2a.5.5 0 0 1 .3-.3l4-.8a.5.5 0 0 1 .5.6l-1.9 6h.2a4.4 4.4 0 0 1 3-1.6 2.2 2.2 0 0 1 2.4 2.2 3 3 0 0 1-.2 1.1l-1.1 3.1a4.7 4.7 0 0 0-.3 1.1.4.4 0 0 0 .4.4h.3a.5.5 0 0 1 .7.3.5.5 0 0 1-.2.5 4.5 4.5 0 0 1-2.6 1.1c-1 0-2.2-.5-2.2-1.7a3.9 3.9 0 0 1 .3-1.1L16 8.5a5.1 5.1 0 0 0 .3-1c0-.3-.1-.5-.4-.5-2 0-3.3 4.9-4 7.3a.5.5 0 0 1-.5.3zm12 .1a.5.5 0 0 1-.4-.6c.6-1.4 1-3.1 1.5-4.6a5.6 5.6 0 0 0 .2-1.2c0-.3 0-.6-.3-.6h-.2a.4.4 0 0 1-.4-.2.6.6 0 0 1 .2-.7l2.2-1.4a.8.8 0 0 1 1 .1 2.2 2.2 0 0 1 .6 1.6V8c.6-1.1 1.5-2.9 3-2.9a1.5 1.5 0 0 1 1.5 1.6c0 1.1-.5 2-1.7 2s-1-.7-1.4-.7-1.6 2.6-1.8 3.2a18.9 18.9 0 0 0-.8 3.1.5.5 0 0 1-.4.4zm9.8-8.6l3.5-.9a.4.4 0 0 1 .5.3 3.7 3.7 0 0 1 .1.9 3.3 3.3 0 0 1-.2 1L32.7 12a2.3 2.3 0 0 0-.2.7.3.3 0 0 0 .3.3 9.5 9.5 0 0 0 2-1.3 2.3 2.3 0 0 0-.4 1.4c-.8.7-2.1 1.9-3.4 1.9a1.8 1.8 0 0 1-2-2 3.2 3.2 0 0 1 .2-1.1l1.3-3.5a2 2 0 0 0 .2-.7.4.4 0 0 0-.4-.5.3.3 0 0 1-.3-.4v-.3a.6.6 0 0 1 .5-.4zm5.4-3.6A2 2 0 0 1 34 4.6a2.1 2.1 0 0 1-2.1-2.1A2 2 0 0 1 33.8.4a2.1 2.1 0 0 1 2.1 2.1zm7.7 4.4c0 .9-.7 1.3-1.6 1.3a1.7 1.7 0 0 1-1.5-1.6l-.7-.2a.8.8 0 0 0-.8.8c0 1.5 3.5 1.3 3.5 4.3s-2 3.4-4.1 3.4-3.6-.3-3.6-2a1.3 1.3 0 0 1 1.4-1.5c1.1 0 1.5.7 1.6 1.6s.5.5.8.5 1.1-.3 1.1-.9-3.4-1.6-3.4-4.1 1.8-3.4 3.8-3.4 3.5.3 3.5 1.8zm1.1-.7l.2-.6a.4.4 0 0 1 .3-.3h.5a.4.4 0 0 0 .3-.2l.8-2.1.2-.2 3-1a.4.4 0 0 1 .5.5l-.8 2.6a.4.4 0 0 0 .3.5h.7a.4.4 0 0 1 .3.5l-.2.6a.4.4 0 0 1-.3.2h-1.1a.4.4 0 0 0-.3.2l-1.6 4.6a3.9 3.9 0 0 0-.2 1 .5.5 0 0 0 .6.5c1 0 3-1.3 3.2-1.5a.4.4 0 0 1 .6.2v.4a.4.4 0 0 1-.1.3c-.9.8-3.2 2.5-5.7 2.5a2 2 0 0 1-2.1-2 5.8 5.8 0 0 1 .3-1.5l1.4-4.3a.4.4 0 0 0-.3-.5.4.4 0 0 1-.5-.4z"/><path d="M52 6.1l3.7-.9a.3.3 0 0 1 .4.2 3.8 3.8 0 0 1 .1.9 3.3 3.3 0 0 1-.2 1L54.4 12a2.3 2.3 0 0 0-.2.7c0 .2.1.4.3.3s2.9-1.9 3.2-2.1l.2 1.1c-.8.7-2.9 3-5.1 3a1.8 1.8 0 0 1-2-1.9A3.2 3.2 0 0 1 51 12l1.3-3.5a2 2 0 0 0 .2-.7.4.4 0 0 0-.4-.5.4.4 0 0 1-.3-.5v-.4zm5.5-3.6a2 2 0 0 1-1.9 2.1 2.1 2.1 0 0 1-2.1-2.1A2 2 0 0 1 55.4.4a2.1 2.1 0 0 1 2.1 2.1z"/><path d="M56.8 14.7a.4.4 0 0 1-.4-.6 45.6 45.6 0 0 0 1.8-5.3 2.5 2.5 0 0 0 .1-.6c0-.2-.2-.3-.5-.4l-.3-.2v-.2a.4.4 0 0 1 .2-.6l2.6-1.5a.4.4 0 0 1 .5.1 4.9 4.9 0 0 1 .8 1.2.4.4 0 0 0 .7.1A4.2 4.2 0 0 1 65 5.1a2.2 2.2 0 0 1 2.4 2.2 3.5 3.5 0 0 1-.2 1.1l-1.1 3.2a4.2 4.2 0 0 0-.3 1c0 .2.1.4.3.4h.3a.4.4 0 0 1 .6.3v.2a.4.4 0 0 1-.1.4 3.9 3.9 0 0 1-2.7 1.1c-1 0-2.1-.5-2.1-1.7a3.6 3.6 0 0 1 .2-1.1l1.3-3.6a3.9 3.9 0 0 0 .3-1c0-.3-.1-.5-.4-.5s-3.2 5.4-3.6 7.3a.4.4 0 0 1-.4.4zm20.3-1.2a3.3 3.3 0 0 1-2.3 1.3 1.8 1.8 0 0 1-1.9-1.6 3.5 3.5 0 0 1-2.8 1.6c-1.7 0-2.5-1.5-2.5-3.1 0-3.6 3.5-6.8 7.4-6.8 1 0 2.9.4 2.9 1.7a1.5 1.5 0 0 1-.5 1L76 12.2a2.7 2.7 0 0 0-.1.5c0 .2.1.3.3.3l.5-.3a.2.2 0 0 1 .3.1zM74 7.4v-.6c0-.3-.1-.5-.4-.5s-2.7 4.9-2.7 6.1.1.6.4.6 1-.6 1.2-1.3zM7.4 18.7a2.7 2.7 0 0 1 1.2 1.9h.1a4.2 4.2 0 0 1 3.1-1.9 2 2 0 0 1 2.1 2h.1a4.9 4.9 0 0 1 3.5-2 2.2 2.2 0 0 1 2.4 2.2 4 4 0 0 1-.3 1.3l-1.2 3.2a3.4 3.4 0 0 0-.2.9c0 .2.2.3.4.4s2.1-.7 2.4-1.1h.1l.3.9a7.4 7.4 0 0 1-4.5 2.1c-1-.1-2.1-.3-2.1-1.7a3.8 3.8 0 0 1 .2-1.2l1.2-3.7a4.4 4.4 0 0 0 .2-.8c0-.3-.1-.5-.3-.5s-2.9 4.1-3.3 5.3-.3 1.3-.5 1.9a.5.5 0 0 1-.5.4H9.1a.5.5 0 0 1-.5-.7c.7-1.8 2.4-6.2 2.4-6.5s-.2-.5-.4-.5-2.9 4.1-3.3 5.3-.3 1.3-.5 1.9a.5.5 0 0 1-.5.4H3.7a.5.5 0 0 1-.4-.7c.7-1.7 1.2-3.5 1.8-5.3a2.5 2.5 0 0 0 .1-.5c0-.5-.2-.7-.6-.3h-.1l-.5-.7 3.3-2z"/><path d="M24.8 18.9a.9.9 0 0 1 1 .4 2.6 2.6 0 0 1 .4 1.3 4.6 4.6 0 0 1-.3 1.6l-.9 2.4a9.9 9.9 0 0 0-.5 1.6c0 .4.3.5.5.5s1.7-1.9 2-2.5a25.4 25.4 0 0 0 1.5-4.8.5.5 0 0 1 .5-.4h2.7a.5.5 0 0 1 .5.7c-.5 1.4-1.5 3.9-1.9 5.5a7.1 7.1 0 0 0-.3 1.2c0 .2.1.3.3.3a3.2 3.2 0 0 0 1.9-1h.1a3.7 3.7 0 0 0-.4 1.3 4.9 4.9 0 0 1-3.2 1.5 1.7 1.7 0 0 1-1.9-1.9 3.9 3.9 0 0 1-3.2 1.9c-1.4 0-2.4-.6-2.4-2.2a3.1 3.1 0 0 1 .2-1.2l1.1-2.9a3.7 3.7 0 0 0 .3-1c0-.3-.4-.4-.7-.4l-.2-.8zm9.8 1.4L37 19a.9.9 0 0 1 1.1.2 4.4 4.4 0 0 1 1 2h.1l1.1-1.6a2.1 2.1 0 0 1 1.7-.9c1 0 1.4.6 1.4 1.6a1.7 1.7 0 0 1-1.3 1.7c-1.1 0-.9-1-1.3-1l-.4.5-.9 1.6.5 2.7c.1.4.2.6.5.6a2.9 2.9 0 0 0 2.2-1.4h.1l.3.8c-.6.7-2.1 2.6-4.1 2.6s-1.7-.8-2-1.8l-.2-.9h-.1l-.5.8c-.6.9-1.3 1.9-2.5 1.9a1.4 1.4 0 0 1-1.5-1.4 1.7 1.7 0 0 1 1.5-1.8c1.1 0 1.1.8 1.2.8s.3-.3.5-.6l.8-1.4-.3-2c-.1-.3-.2-.9-.6-.9H35a.3.3 0 0 1-.4-.1v-.4a.3.3 0 0 1 0-.3z"/><path d="M49.2 25.8c-.5.7-3.4 2.7-4.7 2.7a1.9 1.9 0 0 1-2.1-2.1 4.8 4.8 0 0 1 .3-1.4l2.7-6.9a2.9 2.9 0 0 0 .2-.8c0-.5-1.1-.7-1.5-.7l.3-1a5.3 5.3 0 0 0 5.8-1.2h.1c-1.5 3.9-3 7-4.3 11a3.8 3.8 0 0 0-.2.9.5.5 0 0 0 .5.5 6.3 6.3 0 0 0 2.7-2h.1z"/><path d="M58.6 22.8a5.7 5.7 0 0 1-5.5 5.7c-2.4 0-4.3-1.4-4.3-4.2a5.7 5.7 0 0 1 5.5-5.7 4 4 0 0 1 4.3 4.2zM52 26.3c0 .6.2 1 .8 1s2.6-5.3 2.6-6.3-.2-1-.8-1-2.5 5.2-2.5 6.3z"/><path d="M58.1 20.8a13.2 13.2 0 0 0 5.1-2.2h.1a4.8 4.8 0 0 1 .6 2.2 2.9 2.9 0 0 1-.2 1l-1.1 3.3a3.5 3.5 0 0 0-.2 1c0 .4.3.5.5.5s2-2.7 2.3-3.5a28 28 0 0 0 1-3.7.6.6 0 0 1 .6-.5H69a.6.6 0 0 1 .6.8c-.6 1.8-1 3.5-1.5 5.2a8 8 0 0 0-.3 1.3c0 .4.4.6.8.6 2.8 0 4.1-4.2 4.1-5.3s-1.3-.9-1.3-2a1.7 1.7 0 0 1 1.6-1.8c1.2 0 1.6.9 1.6 1.9 0 3.1-1.7 8.9-7.4 8.9-1.3 0-2.2-.4-2.4-1.7h-.1c-1 1.1-1.7 1.8-3.4 1.8s-2.5-.5-2.5-2.1a3.3 3.3 0 0 1 .2-1.2l.9-2.6a6.4 6.4 0 0 0 .4-1.4c0-.3-1.9.3-2.1.3l-.2-.8z"/></symbol></svg>